ffmpeg version 4.2.4-1ubuntu0.1 Copyright (c) 2000-2020 the FFmpeg developers
  built with gcc 9 (Ubuntu 9.3.0-10ubuntu2)
  configuration: --prefix=/usr --extra-version=1ubuntu0.1 --toolchain=hardened --libdir=/usr/lib/x86_64-linux-gnu --incdir=/usr/include/x86_64-linux-gnu --arch=amd64 --enable-gpl --disable-stripping --enable-avresample --disable-filter=resample --enable-avisynth --enable-gnutls --enable-ladspa --enable-libaom --enable-libass --enable-libbluray --enable-libbs2b --enable-libcaca --enable-libcdio --enable-libcodec2 --enable-libflite --enable-libfontconfig --enable-libfreetype --enable-libfribidi --enable-libgme --enable-libgsm --enable-libjack --enable-libmp3lame --enable-libmysofa --enable-libopenjpeg --enable-libopenmpt --enable-libopus --enable-libpulse --enable-librsvg --enable-librubberband --enable-libshine --enable-libsnappy --enable-libsoxr --enable-libspeex --enable-libssh --enable-libtheora --enable-libtwolame --enable-libvidstab --enable-libvorbis --enable-libvpx --enable-libwavpack --enable-libwebp --enable-libx265 --enable-libxml2 --enable-libxvid --enable-libzmq --enable-libzvbi --enable-lv2 --enable-omx --enable-openal --enable-opencl --enable-opengl --enable-sdl2 --enable-libdc1394 --enable-libdrm --enable-libiec61883 --enable-nvenc --enable-chromaprint --enable-frei0r --enable-libx264 --enable-shared
  WARNING: library configuration mismatch
  avcodec     configuration: --prefix=/usr --extra-version=1ubuntu0.1 --toolchain=hardened --libdir=/usr/lib/x86_64-linux-gnu --incdir=/usr/include/x86_64-linux-gnu --arch=amd64 --enable-gpl --disable-stripping --enable-avresample --disable-filter=resample --enable-avisynth --enable-gnutls --enable-ladspa --enable-libaom --enable-libass --enable-libbluray --enable-libbs2b --enable-libcaca --enable-libcdio --enable-libcodec2 --enable-libflite --enable-libfontconfig --enable-libfreetype --enable-libfribidi --enable-libgme --enable-libgsm --enable-libjack --enable-libmp3lame --enable-libmysofa --enable-libopenjpeg --enable-libopenmpt --enable-libopus --enable-libpulse --enable-librsvg --enable-librubberband --enable-libshine --enable-libsnappy --enable-libsoxr --enable-libspeex --enable-libssh --enable-libtheora --enable-libtwolame --enable-libvidstab --enable-libvorbis --enable-libvpx --enable-libwavpack --enable-libwebp --enable-libx265 --enable-libxml2 --enable-libxvid --enable-libzmq --enable-libzvbi --enable-lv2 --enable-omx --enable-openal --enable-opencl --enable-opengl --enable-sdl2 --enable-libdc1394 --enable-libdrm --enable-libiec61883 --enable-nvenc --enable-chromaprint --enable-frei0r --enable-libx264 --enable-shared --enable-version3 --disable-doc --disable-programs --enable-libaribb24 --enable-liblensfun --enable-libopencore_amrnb --enable-libopencore_amrwb --enable-libtesseract --enable-libvo_amrwbenc
  libavutil      56. 31.100 / 56. 31.100
  libavcodec     58. 54.100 / 58. 54.100
  libavformat    58. 29.100 / 58. 29.100
  libavdevice    58.  8.100 / 58.  8.100
  libavfilter     7. 57.100 /  7. 57.100
  libavresample   4.  0.  0 /  4.  0.  0
  libswscale      5.  5.100 /  5.  5.100
  libswresample   3.  5.100 /  3.  5.100
  libpostproc    55.  5.100 / 55.  5.100
Input #0, image2, from './Cubo/Cubo%02d.png':
  Duration: 00:00:04.00, start: 0.000000, bitrate: N/A
    Stream #0:0: Video: png, rgb24(pc), 320x240, 25 fps, 25 tbr, 25 tbn, 25 tbc
Stream mapping:
  Stream #0:0 -> #0:0 (png (native) -> h264 (libx264))
Press [q] to stop, [?] for help
[libx264 @ 0x56535b4db840] using cpu capabilities: MMX2 SSE2Fast LZCNT SSSE3 SSE4.2 AVX
[libx264 @ 0x56535b4db840] profile High 4:4:4 Predictive, level 1.3, 4:4:4 8-bit
Output #0, avi, to 'cmp-functs/cub_h264_chroma.avi':
  Metadata:
    ISFT            : Lavf58.29.100
    Stream #0:0: Video: h264 (libx264) (H264 / 0x34363248), yuv444p, 320x240, q=-1--1, 25 fps, 25 tbn, 25 tbc
    Metadata:
      encoder         : Lavc58.54.100 libx264
    Side data:
      cpb: bitrate max/min/avg: 0/0/0 buffer size: 0 vbv_delay: -1
frame=   65 fps=0.0 q=28.0 size=       6kB time=00:00:00.88 bitrate=  51.6kbits/s speed=1.74x    frame=   86 fps= 85 q=28.0 size=       6kB time=00:00:01.72 bitrate=  26.4kbits/s speed= 1.7x    frame=  100 fps= 54 q=28.0 Lsize=     386kB time=00:00:03.92 bitrate= 807.6kbits/s speed=2.12x    
video:379kB audio:0kB subtitle:0kB other streams:0kB global headers:0kB muxing overhead: 2.101442%
bench: utime=1.588s stime=0.016s rtime=1.849s
bench: maxrss=75064kB
[libx264 @ 0x56535b4db840] frame I:5     Avg QP:25.33  size:  6144
[libx264 @ 0x56535b4db840] frame P:24    Avg QP:28.15  size:  4613
[libx264 @ 0x56535b4db840] frame B:71    Avg QP:29.55  size:  3467
[libx264 @ 0x56535b4db840] consecutive B-frames:  5.0%  0.0%  3.0% 92.0%
[libx264 @ 0x56535b4db840] mb I  I16..4: 20.1%  0.0% 79.9%
[libx264 @ 0x56535b4db840] mb P  I16..4: 13.0%  0.0% 51.5%  P16..4: 12.4% 13.4%  7.2%  0.0%  0.0%    skip: 2.6%
[libx264 @ 0x56535b4db840] mb B  I16..4:  2.9%  0.0% 22.9%  B16..8: 28.1% 22.8%  7.5%  direct: 5.4%  skip:10.4%  L0:42.2% L1:40.8% BI:17.0%
[libx264 @ 0x56535b4db840] coded y,u,v intra: 74.7% 59.1% 62.1% inter: 36.0% 12.1% 15.3%
[libx264 @ 0x56535b4db840] i16 v,h,dc,p: 20% 35% 17% 28%
[libx264 @ 0x56535b4db840] i4 v,h,dc,ddl,ddr,vr,hd,vl,hu: 25% 12% 19%  9%  6%  8%  5% 12%  4%
[libx264 @ 0x56535b4db840] Weighted P-Frames: Y:0.0% UV:0.0%
[libx264 @ 0x56535b4db840] ref P L0: 50.4%  9.9% 21.1% 18.5%
[libx264 @ 0x56535b4db840] ref B L0: 89.6%  7.6%  2.7%
[libx264 @ 0x56535b4db840] ref B L1: 95.5%  4.5%
[libx264 @ 0x56535b4db840] kb/s:775.18
